<?xml version="1.0" encoding="UTF-8"?>
<!DOCTYPE svg PUBLIC "-//W3C//DTD SVG 1.1//EN" "http://www.w3.org/Graphics/SVG/1.1/DTD/svg11.dtd">
<svg xmlns="http://www.w3.org/2000/svg" version="1.1" width="512px" height="512px" style="shape-rendering:geometricPrecision; text-rendering:geometricPrecision; image-rendering:optimizeQuality; fill-rule:evenodd; clip-rule:evenodd" xmlns:xlink="http://www.w3.org/1999/xlink">
<g><path style="opacity:1" fill="#acbac8" d="M 232.5,-0.5 C 247.833,-0.5 263.167,-0.5 278.5,-0.5C 378.271,12.4486 449.438,64.4486 492,155.5C 502.136,180.379 508.636,206.046 511.5,232.5C 511.5,247.833 511.5,263.167 511.5,278.5C 498.551,378.271 446.551,449.438 355.5,492C 330.622,502.136 304.955,508.636 278.5,511.5C 263.167,511.5 247.833,511.5 232.5,511.5C 132.727,498.549 61.5605,446.549 19,355.5C 8.86392,330.621 2.36392,304.954 -0.5,278.5C -0.5,263.167 -0.5,247.833 -0.5,232.5C 12.4486,132.729 64.4486,61.5622 155.5,19C 180.379,8.86392 206.046,2.36392 232.5,-0.5 Z M 252.5,122.5 C 264.943,122.624 272.776,128.624 276,140.5C 276.5,171.832 276.667,203.165 276.5,234.5C 307.835,234.333 339.168,234.5 370.5,235C 384.578,238.985 390.078,248.152 387,262.5C 383.952,269.947 378.452,274.447 370.5,276C 339.168,276.5 307.835,276.667 276.5,276.5C 276.667,307.835 276.5,339.168 276,370.5C 272.015,384.578 262.848,390.078 248.5,387C 241.053,383.952 236.553,378.452 235,370.5C 234.5,339.168 234.333,307.835 234.5,276.5C 203.165,276.667 171.832,276.5 140.5,276C 126.422,272.015 120.922,262.848 124,248.5C 127.048,241.053 132.548,236.553 140.5,235C 171.832,234.5 203.165,234.333 234.5,234.5C 234.333,203.165 234.5,171.832 235,140.5C 237.014,130.654 242.847,124.654 252.5,122.5 Z"/></g>
</svg>
