<?xml version="1.0" encoding="UTF-8"?>
<!DOCTYPE svg PUBLIC "-//W3C//DTD SVG 1.1//EN" "http://www.w3.org/Graphics/SVG/1.1/DTD/svg11.dtd">
<svg xmlns="http://www.w3.org/2000/svg" version="1.1" width="512px" height="512px" style="shape-rendering:geometricPrecision; text-rendering:geometricPrecision; image-rendering:optimizeQuality; fill-rule:evenodd; clip-rule:evenodd" xmlns:xlink="http://www.w3.org/1999/xlink">
<g><path style="opacity:1" fill="#acbac8" d="M 60.5,-0.5 C 190.5,-0.5 320.5,-0.5 450.5,-0.5C 450.5,9.5 450.5,19.5 450.5,29.5C 440.5,29.5 430.5,29.5 420.5,29.5C 419.971,85.2883 401.471,133.955 365,175.5C 346.641,192.859 328.641,210.526 311,228.5C 298.333,246.5 298.333,264.5 311,282.5C 328.641,300.474 346.641,318.141 365,335.5C 401.471,377.045 419.971,425.712 420.5,481.5C 430.5,481.5 440.5,481.5 450.5,481.5C 450.5,491.5 450.5,501.5 450.5,511.5C 320.5,511.5 190.5,511.5 60.5,511.5C 60.5,501.5 60.5,491.5 60.5,481.5C 70.5,481.5 80.5,481.5 90.5,481.5C 91.0293,425.712 109.529,377.045 146,335.5C 164.359,318.141 182.359,300.474 200,282.5C 212.667,264.5 212.667,246.5 200,228.5C 182.359,210.526 164.359,192.859 146,175.5C 109.529,133.955 91.0293,85.2883 90.5,29.5C 80.5,29.5 70.5,29.5 60.5,29.5C 60.5,19.5 60.5,9.5 60.5,-0.5 Z M 121.5,29.5 C 210.833,29.5 300.167,29.5 389.5,29.5C 388.613,53.4903 384.28,76.8236 376.5,99.5C 295.833,99.5 215.167,99.5 134.5,99.5C 126.72,76.8236 122.387,53.4903 121.5,29.5 Z M 239.5,267.5 C 240.498,300.662 240.832,333.996 240.5,367.5C 237.157,368.224 233.824,369.057 230.5,370C 199.282,383.287 167.949,395.953 136.5,408C 143.504,391.486 152.671,376.319 164,362.5C 182.308,343.859 200.975,325.526 220,307.5C 230.507,296.153 237.007,282.82 239.5,267.5 Z M 270.5,267.5 C 273.861,282.555 280.695,295.888 291,307.5C 310.025,325.526 328.692,343.859 347,362.5C 358.329,376.319 367.496,391.486 374.5,408C 343.051,395.953 311.718,383.287 280.5,370C 277.176,369.057 273.843,368.224 270.5,367.5C 270.5,334.167 270.5,300.833 270.5,267.5 Z"/></g>
</svg>
