<?xml version="1.0" encoding="UTF-8"?>
<!DOCTYPE svg PUBLIC "-//W3C//DTD SVG 1.1//EN" "http://www.w3.org/Graphics/SVG/1.1/DTD/svg11.dtd">
<svg xmlns="http://www.w3.org/2000/svg" version="1.1" width="512px" height="512px" style="shape-rendering:geometricPrecision; text-rendering:geometricPrecision; image-rendering:optimizeQuality; fill-rule:evenodd; clip-rule:evenodd" xmlns:xlink="http://www.w3.org/1999/xlink">
<g><path style="opacity:1" fill="#acbac8" d="M 232.5,-0.5 C 247.833,-0.5 263.167,-0.5 278.5,-0.5C 368.144,10.3879 435.644,54.7213 481,132.5C 497.695,163.971 507.861,197.304 511.5,232.5C 511.5,247.833 511.5,263.167 511.5,278.5C 500.612,368.144 456.279,435.644 378.5,481C 347.029,497.695 313.696,507.861 278.5,511.5C 263.167,511.5 247.833,511.5 232.5,511.5C 142.856,500.612 75.3562,456.279 30,378.5C 13.3053,347.029 3.1386,313.696 -0.5,278.5C -0.5,263.167 -0.5,247.833 -0.5,232.5C 10.3875,142.857 54.7208,75.3573 132.5,30C 163.971,13.3053 197.304,3.1386 232.5,-0.5 Z M 194.5,130.5 C 217.502,130.333 240.502,130.5 263.5,131C 277.974,137.082 281.807,147.248 275,161.5C 272.292,165.104 268.792,167.604 264.5,169C 241.464,169.064 218.464,169.73 195.5,171C 185.704,174.462 179.871,181.295 178,191.5C 177.026,235.871 177.36,280.205 179,324.5C 182.255,332.089 187.755,337.256 195.5,340C 218.464,341.27 241.464,341.936 264.5,342C 278.78,349.173 281.947,359.673 274,373.5C 271.01,376.491 267.51,378.657 263.5,380C 163.48,397.147 121.813,355.647 138.5,255.5C 138.667,232.167 138.833,208.833 139,185.5C 145.467,154.865 163.967,136.532 194.5,130.5 Z M 327.5,186.5 C 333.072,185.99 338.405,186.823 343.5,189C 362,207.5 380.5,226 399,244.5C 404.246,253.867 403.246,262.533 396,270.5C 378.441,288.728 360.274,306.228 341.5,323C 325.624,327.066 316.29,321.066 313.5,305C 313.615,300.32 315.115,296.153 318,292.5C 323.167,287.333 328.333,282.167 333.5,277C 302.466,276.954 271.466,276.287 240.5,275C 226.485,268.626 222.985,258.459 230,244.5C 232.928,240.619 236.761,238.119 241.5,237C 272.505,236.833 303.505,236.333 334.5,235.5C 328.848,229.348 323.015,223.348 317,217.5C 310.437,203.687 313.937,193.353 327.5,186.5 Z"/></g>
</svg>
