<?xml version="1.0" encoding="UTF-8"?>
<!DOCTYPE svg PUBLIC "-//W3C//DTD SVG 1.1//EN" "http://www.w3.org/Graphics/SVG/1.1/DTD/svg11.dtd">
<svg xmlns="http://www.w3.org/2000/svg" version="1.1" width="512px" height="512px" style="shape-rendering:geometricPrecision; text-rendering:geometricPrecision; image-rendering:optimizeQuality; fill-rule:evenodd; clip-rule:evenodd" xmlns:xlink="http://www.w3.org/1999/xlink">
<g><path style="opacity:1" fill="#acbac8" d="M 161.5,-0.5 C 224.5,-0.5 287.5,-0.5 350.5,-0.5C 353.542,1.22405 355.375,3.89071 356,7.5C 356.667,22.1667 356.667,36.8333 356,51.5C 355.484,54.0336 354.317,56.2002 352.5,58C 320.417,59.1599 288.25,59.6599 256,59.5C 223.75,59.6599 191.583,59.1599 159.5,58C 157.951,56.786 156.785,55.286 156,53.5C 155.333,37.5 155.333,21.5 156,5.5C 157.36,2.97739 159.193,0.977392 161.5,-0.5 Z"/></g>
<g><path style="opacity:1" fill="#acbac8" d="M 414.5,511.5 C 308.167,511.5 201.833,511.5 95.5,511.5C 77.5157,506.348 66.0157,494.682 61,476.5C 60.3333,340.167 60.3333,203.833 61,67.5C 64.8046,47.3854 76.6379,34.8854 96.5,30C 106.494,29.5002 116.494,29.3335 126.5,29.5C 126.334,38.1731 126.5,46.8397 127,55.5C 131.628,76.0682 144.462,87.2349 165.5,89C 225.5,89.6667 285.5,89.6667 345.5,89C 368.402,86.7649 381.569,74.2649 385,51.5C 385.5,44.1742 385.666,36.8409 385.5,29.5C 395.506,29.3335 405.506,29.5002 415.5,30C 433.667,34.8333 445.167,46.3333 450,64.5C 450.667,200.833 450.667,337.167 450,473.5C 446.082,493.737 434.249,506.403 414.5,511.5 Z M 205.5,149.5 C 219.105,151.041 223.938,158.374 220,171.5C 203.167,188.333 186.333,205.167 169.5,222C 164.013,224.185 158.68,223.851 153.5,221C 144.931,213.1 137.097,204.6 130,195.5C 128.126,184.551 132.626,178.218 143.5,176.5C 145.923,176.594 148.256,177.094 150.5,178C 154.648,181.314 158.648,184.814 162.5,188.5C 174.653,176.848 186.653,165.014 198.5,153C 200.713,151.384 203.047,150.217 205.5,149.5 Z M 260.5,179.5 C 296.168,179.333 331.835,179.5 367.5,180C 379.982,183.131 383.815,190.631 379,202.5C 375.984,206.092 372.151,208.258 367.5,209C 331.833,209.667 296.167,209.667 260.5,209C 246.472,205.437 242.972,197.271 250,184.5C 253.147,181.841 256.647,180.174 260.5,179.5 Z M 203.5,257.5 C 219.153,258.144 224.319,265.81 219,280.5C 202.833,296.667 186.667,312.833 170.5,329C 165.137,332.246 159.803,332.246 154.5,329C 145.296,321.463 137.129,312.963 130,303.5C 128.288,289.212 134.455,283.045 148.5,285C 153.603,288.266 158.27,292.1 162.5,296.5C 175.911,283.086 189.578,270.086 203.5,257.5 Z M 260.5,279.5 C 296.168,279.333 331.835,279.5 367.5,280C 379.982,283.131 383.815,290.631 379,302.5C 375.984,306.092 372.151,308.258 367.5,309C 331.833,309.667 296.167,309.667 260.5,309C 246.472,305.437 242.972,297.271 250,284.5C 253.147,281.841 256.647,280.174 260.5,279.5 Z M 203.5,357.5 C 219.153,358.144 224.319,365.81 219,380.5C 202.833,396.667 186.667,412.833 170.5,429C 165.137,432.246 159.803,432.246 154.5,429C 145.296,421.463 137.129,412.963 130,403.5C 128.288,389.212 134.455,383.045 148.5,385C 153.603,388.266 158.27,392.1 162.5,396.5C 175.911,383.086 189.578,370.086 203.5,357.5 Z M 260.5,379.5 C 296.168,379.333 331.835,379.5 367.5,380C 378.29,382.067 382.79,388.567 381,399.5C 378.187,404.996 373.687,408.162 367.5,409C 331.833,409.667 296.167,409.667 260.5,409C 246.472,405.437 242.972,397.271 250,384.5C 253.147,381.841 256.647,380.174 260.5,379.5 Z"/></g>
</svg>
